<svg width="300" height="46" viewBox="0 0 300 46" fill="none" xmlns="http://www.w3.org/2000/svg">
<g clip-path="url(#clip0_8_192)">
<mask id="mask0_8_192" style="mask-type:luminance" maskUnits="userSpaceOnUse" x="0" y="0" width="300" height="46">
<path d="M300 0.268066H0V45.9998H300V0.268066Z" fill="white"/>
</mask>
<g mask="url(#mask0_8_192)">
<path d="M29.6704 29.6088L14.8352 14.9384L29.6704 0.268066H14.8352L0 14.9384L7.41757 22.3559L14.8352 29.6088L22.2527 36.8615L29.6704 29.6088Z" fill="#F8F8F8"/>
<path d="M40.2199 22.3554L32.8022 14.9378L25.3847 7.68506L18.1319 14.9378L32.8022 29.6081L17.9671 44.2785H32.8022L40.2199 37.0256L47.6374 29.6081L40.2199 22.3554Z" fill="#F8F8F8"/>
<path d="M66.099 14.9373C63.9562 14.9373 62.143 15.5966 60.8243 17.0801C59.5056 18.5637 58.8463 20.5416 58.8463 23.1791C58.8463 25.8163 59.5056 27.7945 60.6595 29.2779C61.9782 30.7614 63.6265 31.4208 65.9342 31.4208C67.4177 31.4208 68.9012 31.0912 70.7144 30.5966V32.7396C69.2309 33.234 67.5825 33.5637 65.6045 33.5637C62.6375 33.5637 60.3298 32.7396 58.6815 30.9262C57.0331 29.113 56.2089 26.4758 56.2089 23.1791C56.2089 21.0363 56.5387 19.2229 57.3628 17.7395C58.187 16.256 59.3408 14.9373 60.6595 14.1131C61.9782 13.2889 63.7914 12.7944 65.9342 12.7944C68.0772 12.7944 69.8903 13.1241 71.5387 13.9483L70.5496 15.9263C69.2309 15.4318 67.7473 14.9373 66.099 14.9373Z" fill="#F8F8F8"/>
<path d="M86.7036 27.9595C86.7036 29.7727 86.0442 31.0914 84.7255 32.0805C83.4069 33.0694 81.7586 33.564 79.4508 33.564C76.9783 33.564 75.1652 33.2342 73.8464 32.5749V30.2673C74.6705 30.5969 75.6596 30.9266 76.4837 31.0914C77.308 31.2562 78.4619 31.421 79.4508 31.421C81.0991 31.421 82.253 31.0914 82.9123 30.5969C83.7366 29.9377 84.0662 29.1134 84.0662 28.1243C84.0662 27.465 83.9014 26.8058 83.5717 26.476C83.2419 25.9815 82.7475 25.6519 82.0882 25.1574C81.4288 24.8276 80.4398 24.3332 79.1211 23.8387C77.308 23.1793 75.8244 22.3552 75.1652 21.3661C74.3409 20.3772 74.0113 19.2233 74.0113 17.7398C74.0113 16.2563 74.6705 14.9376 75.8244 13.9486C76.9783 12.9596 78.6267 12.6299 80.4399 12.6299C82.4178 12.6299 84.231 12.9596 86.0442 13.7837L85.3849 15.7618C83.7366 15.1024 82.0882 14.7727 80.4399 14.7727C79.1211 14.7727 78.297 15.1024 77.4728 15.5969C76.8135 16.0914 76.4837 16.9156 76.4837 17.9046C76.4837 18.564 76.6487 19.2233 76.8135 19.5529C77.1431 20.0475 77.4728 20.3772 78.132 20.7068C78.7915 21.0364 79.6156 21.5309 80.9343 22.0255C83.0771 22.8496 84.5606 23.6739 85.3849 24.498C86.3738 25.4871 86.7036 26.641 86.7036 27.9595Z" fill="#F8F8F8"/>
<path d="M102.363 27.9595C102.363 29.7727 101.703 31.0914 100.385 32.0805C99.066 33.0694 97.4177 33.564 95.1099 33.564C92.6374 33.564 90.8243 33.2342 89.5056 32.5749V30.2673C90.3296 30.5969 91.3187 30.9266 92.1428 31.0914C92.9671 31.2562 94.121 31.421 95.1099 31.421C96.7582 31.421 97.9121 31.0914 98.5714 30.5969C99.3957 29.9377 99.7253 29.1134 99.7253 28.1243C99.7253 27.465 99.5605 26.8058 99.2309 26.476C98.9012 25.9815 98.4066 25.6519 97.7473 25.1574C97.0879 24.8276 96.099 24.3332 94.7803 23.8387C92.9671 23.1793 91.4835 22.3552 90.8243 21.3661C90 20.3772 89.6704 19.2233 89.6704 17.7398C89.6704 16.2563 90.3296 14.9376 91.4835 13.9486C92.6374 12.9596 94.2858 12.6299 96.099 12.6299C98.077 12.6299 99.8901 12.9596 101.703 13.7837L101.044 15.7618C99.3957 15.1024 97.7473 14.7727 96.099 14.7727C94.7803 14.7727 93.9562 15.1024 93.1319 15.5969C92.4726 16.0914 92.1428 16.9156 92.1428 17.9046C92.1428 18.564 92.3078 19.2233 92.4726 19.5529C92.8023 20.0475 93.1319 20.3772 93.7912 20.7068C94.4506 21.0364 95.2747 21.5309 96.5934 22.0255C98.7362 22.8496 100.22 23.6739 101.044 24.498C101.868 25.4871 102.363 26.641 102.363 27.9595Z" fill="#F8F8F8"/>
<path d="M122.967 22.8498C122.967 26.1465 121.978 28.7839 120.165 30.5971C118.352 32.4103 115.714 33.3992 112.253 33.3992H105.659V13.1245H112.582C115.879 13.1245 118.352 13.9487 120.165 15.597C121.978 17.2454 122.967 19.7179 122.967 22.8498ZM117.363 23.0146C117.363 21.2014 117.033 19.7179 116.209 18.8938C115.55 18.0696 114.396 17.5751 112.912 17.5751H111.264V28.9487H112.418C114.066 28.9487 115.22 28.4541 116.044 27.4652C117.033 26.4761 117.363 24.9926 117.363 23.0146Z" fill="#F8F8F8"/>
<path d="M133.846 33.7289C131.209 33.7289 129.231 33.0694 127.747 31.5859C126.264 30.2674 125.604 28.2892 125.604 25.6519C125.604 23.0145 126.264 21.0365 127.582 19.553C128.901 18.0695 130.879 17.4102 133.352 17.4102C135.659 17.4102 137.473 18.0695 138.791 19.2233C140.11 20.3772 140.769 22.1904 140.769 24.498V26.9707H131.044C131.044 27.7947 131.374 28.4542 132.033 29.1135C132.692 29.6079 133.517 29.9376 134.506 29.9376C135.495 29.9376 136.319 29.7727 137.143 29.6079C137.967 29.4431 138.791 29.1135 139.78 28.619V32.575C138.956 33.0694 138.132 33.2343 137.143 33.3993C136.154 33.5641 135.165 33.7289 133.846 33.7289ZM133.517 21.2013C132.857 21.2013 132.363 21.3662 131.868 21.8608C131.374 22.1904 131.209 22.8497 131.044 23.674H135.659C135.659 22.8497 135.495 22.3552 135 21.8608C134.835 21.3662 134.341 21.2013 133.517 21.2013Z" fill="#F8F8F8"/>
<path d="M155.934 28.6198C155.934 30.2682 155.44 31.5869 154.286 32.411C153.132 33.2352 151.484 33.7297 149.341 33.7297C148.187 33.7297 147.198 33.7297 146.374 33.5649C145.55 33.4001 144.561 33.2352 143.736 32.9056V28.6198C144.561 28.9495 145.55 29.2793 146.539 29.6089C147.528 29.7737 148.352 29.9385 149.176 29.9385C150.33 29.9385 150.989 29.6089 150.989 29.1143C150.989 28.7846 150.824 28.6198 150.495 28.455C150.165 28.2902 149.176 27.7957 147.693 27.1363C146.209 26.477 145.22 25.8176 144.725 25.1583C144.231 24.3342 143.901 23.5099 143.901 22.356C143.901 20.8725 144.396 19.7188 145.55 18.8945C146.703 18.0704 148.187 17.7407 150.33 17.7407C151.319 17.7407 152.308 17.9056 153.297 18.0704C154.286 18.2352 155.11 18.5649 156.099 19.0593L154.616 22.5209C153.956 22.1912 153.132 21.8616 152.308 21.6968C151.484 21.532 150.824 21.3671 150.33 21.3671C149.506 21.3671 149.011 21.532 149.011 22.0264C149.011 22.356 149.176 22.5209 149.506 22.6859C149.835 22.8507 150.659 23.1803 152.143 23.8396C153.297 24.3342 154.121 24.6638 154.616 25.1583C155.11 25.6527 155.605 26.1474 155.769 26.6418C155.769 26.9715 155.934 27.7957 155.934 28.6198Z" fill="#F8F8F8"/>
<path d="M158.901 13.7841C158.901 12.9599 159.066 12.3005 159.561 11.9709C160.055 11.6412 160.714 11.3115 161.703 11.3115C162.692 11.3115 163.516 11.4764 163.846 11.9709C164.341 12.3005 164.506 12.9599 164.506 13.7841C164.506 15.4324 163.516 16.0917 161.539 16.0917C159.725 16.2566 158.901 15.4324 158.901 13.7841ZM164.341 33.3994H158.901V17.7401H164.341V33.3994Z" fill="#F8F8F8"/>
<path d="M182.967 17.7398V20.3772L180.824 21.2013C181.154 21.696 181.318 22.3552 181.318 23.0145C181.318 24.6629 180.659 25.9816 179.505 26.9707C178.352 27.9596 176.538 28.2892 174.231 28.2892C173.571 28.2892 173.242 28.2892 172.912 28.1244C172.747 28.2892 172.747 28.619 172.747 28.7838C172.747 29.1135 172.912 29.2783 173.407 29.4431C173.901 29.6079 174.395 29.6079 175.055 29.6079H177.692C181.154 29.6079 182.967 31.0915 182.967 34.0585C182.967 36.0365 182.143 37.5201 180.494 38.5091C178.846 39.498 176.538 40.1575 173.571 40.1575C171.429 40.1575 169.615 39.8277 168.461 39.0036C167.308 38.3441 166.648 37.1904 166.648 35.8717C166.648 34.0585 167.802 32.7398 170.11 32.2454C169.615 32.0805 169.286 31.7509 168.791 31.2563C168.461 30.7618 168.297 30.4322 168.297 29.9376C168.297 29.4431 168.461 28.9487 168.626 28.619C168.956 28.2892 169.45 27.7947 170.275 27.3003C169.45 26.9707 168.791 26.3112 168.297 25.6519C167.802 24.8277 167.637 24.0036 167.637 22.8497C167.637 21.2013 168.297 19.8826 169.45 18.8937C170.604 17.9047 172.253 17.4102 174.395 17.4102C174.725 17.4102 175.22 17.4102 175.879 17.575C176.538 17.575 177.033 17.7398 177.363 17.7398H182.967ZM171.099 35.3772C171.099 35.8717 171.264 36.2013 171.758 36.531C172.253 36.8608 172.912 36.8608 173.736 36.8608C175.055 36.8608 176.044 36.696 176.868 36.3662C177.692 36.0365 178.022 35.5421 178.022 35.0476C178.022 34.553 177.857 34.3882 177.363 34.2233C176.868 34.0585 176.209 33.8937 175.22 33.8937H173.077C172.417 33.8937 172.088 34.0585 171.593 34.2233C171.264 34.553 171.099 34.8826 171.099 35.3772ZM172.747 22.8497C172.747 24.498 173.242 25.3223 174.395 25.3223C174.89 25.3223 175.385 25.1575 175.549 24.6629C175.879 24.3332 176.044 23.674 176.044 22.8497C176.044 21.2013 175.549 20.3772 174.395 20.3772C173.407 20.3772 172.747 21.2013 172.747 22.8497Z" fill="#F8F8F8"/>
<path d="M195.165 33.4001V24.8287C195.165 23.8396 195 23.0155 194.671 22.5209C194.341 22.0264 193.846 21.6968 193.187 21.6968C192.198 21.6968 191.539 22.0264 191.208 22.8507C190.879 23.5099 190.549 24.8287 190.549 26.6418V33.5649H185.109V17.9056H189.23L189.891 19.8836H190.22C190.714 19.2241 191.374 18.5649 192.198 18.2352C193.023 17.9056 194.01 17.7407 195 17.7407C196.813 17.7407 198.132 18.2352 199.121 19.2242C200.109 20.2132 200.605 21.6968 200.605 23.5099V33.7297H195.165V33.4001Z" fill="#F8F8F8"/>
<path d="M217.912 33.3992L215.44 26.9708H207.362L204.891 33.3992H202.582L210.66 13.1245H212.638L220.549 33.3992H217.912ZM214.615 24.8278L212.309 18.564C211.977 17.7399 211.648 16.7509 211.319 15.597C211.154 16.4212 210.825 17.4102 210.494 18.564L208.187 24.8278H214.615Z" fill="#F8F8F8"/>
<path d="M235.22 33.3999L232.418 24.4988C232.253 24.0042 231.924 22.6857 231.428 20.8725H231.263C230.934 22.5209 230.605 23.6746 230.276 24.6637L227.473 33.5647H224.835L220.714 18.3999H223.187C224.177 22.191 224.835 25.1581 225.494 27.1361C225.99 29.1143 226.319 30.4328 226.319 31.0923H226.484C226.648 30.5976 226.813 29.9384 226.977 29.1143C227.144 28.29 227.473 27.6307 227.638 27.1361L230.44 18.3999H232.912L235.549 27.1361C236.043 28.7845 236.374 30.1032 236.539 31.0923H236.704C236.704 30.7626 236.868 30.268 237.033 29.6087C237.198 28.9493 238.187 25.1581 239.835 18.3999H242.144L238.023 33.5647H235.22V33.3999Z" fill="#F8F8F8"/>
<path d="M254.175 33.3997L253.681 31.2569H253.516C252.691 32.246 252.033 32.9053 251.208 33.2349C250.385 33.5645 249.56 33.7295 248.407 33.7295C246.924 33.7295 245.77 33.3997 244.945 32.5756C244.121 31.7514 243.626 30.7625 243.626 29.2789C243.626 26.147 246.099 24.6635 251.043 24.4987L253.681 24.3339V23.3448C253.681 22.1911 253.352 21.202 252.858 20.7075C252.362 20.2129 251.539 19.8833 250.385 19.8833C249.066 19.8833 247.747 20.2129 246.099 21.0372L245.44 19.224C246.263 18.8944 246.924 18.5645 247.912 18.2349C248.737 18.0701 249.724 17.9053 250.549 17.9053C252.362 17.9053 253.681 18.2349 254.506 19.0592C255.329 19.8833 255.825 21.202 255.825 22.8503V33.2349H254.175V33.3997ZM248.901 31.7514C250.385 31.7514 251.374 31.4217 252.198 30.5977C253.023 29.7734 253.352 28.7845 253.352 27.3009V25.9822L251.043 26.147C249.23 26.147 247.912 26.4767 247.088 26.9711C246.263 27.4658 245.934 28.2898 245.934 29.2789C245.934 30.103 246.263 30.7625 246.757 31.0921C247.418 31.5866 248.076 31.7514 248.901 31.7514Z" fill="#F8F8F8"/>
<path d="M267.527 17.9053C268.187 17.9053 268.846 17.9053 269.341 18.0701L269.01 20.2129C268.352 20.0481 267.858 20.0481 267.362 20.0481C266.21 20.0481 265.055 20.5427 264.23 21.5316C263.407 22.5207 262.912 23.8394 262.912 25.3228V33.3997H260.605V18.2349H262.418L262.747 21.0372H262.912C263.407 20.0481 264.23 19.224 264.891 18.7295C265.714 18.2349 266.539 17.9053 267.527 17.9053Z" fill="#F8F8F8"/>
<path d="M282.529 31.422C281.374 32.9056 279.726 33.7297 277.582 33.7297C275.605 33.7297 274.121 33.0704 272.967 31.7517C271.813 30.4329 271.319 28.455 271.319 25.9825C271.319 23.5099 271.813 21.5319 272.967 20.2132C274.121 18.8945 275.605 18.0704 277.582 18.0704C279.562 18.0704 281.21 18.8945 282.362 20.378H282.529L282.362 19.2243V18.2352V11.8066H284.671V33.4H282.858L282.529 31.422ZM277.912 31.7517C279.562 31.7517 280.549 31.2572 281.374 30.4329C282.033 29.6089 282.362 28.1253 282.362 26.3122V25.8177C282.362 23.6747 282.033 22.1912 281.21 21.2023C280.549 20.2132 279.395 19.8836 277.747 19.8836C276.428 19.8836 275.44 20.378 274.615 21.5319C273.957 22.521 273.461 24.0043 273.461 25.9825C273.461 27.9605 273.792 29.444 274.451 30.4329C275.44 31.2572 276.428 31.7517 277.912 31.7517Z" fill="#F8F8F8"/>
<path d="M299.341 29.2789C299.341 30.7625 298.846 31.7514 297.693 32.5756C296.704 33.3997 295.22 33.7295 293.243 33.7295C291.263 33.7295 289.615 33.3997 288.461 32.7405V30.5977C289.121 30.9273 289.944 31.2569 290.769 31.4217C291.593 31.5866 292.418 31.7514 293.243 31.7514C294.395 31.7514 295.385 31.5866 296.043 31.2569C296.704 30.9273 297.033 30.2678 297.033 29.4437C297.033 28.7845 296.704 28.2898 296.21 27.9602C295.714 27.4658 294.726 26.9711 293.243 26.4767C291.759 25.9822 290.769 25.4878 290.276 25.158C289.615 24.8283 289.286 24.3339 288.957 23.8394C288.626 23.3448 288.461 22.6855 288.461 22.0261C288.461 20.8723 288.957 19.8833 289.944 19.0592C290.934 18.2349 292.253 17.9053 294.066 17.9053C295.714 17.9053 297.362 18.2349 298.846 18.8944L298.023 20.7075C296.539 20.0481 295.055 19.7184 293.901 19.7184C292.747 19.7184 291.924 19.8833 291.428 20.2129C290.934 20.5427 290.605 21.0372 290.605 21.6964C290.605 22.0261 290.769 22.5207 290.934 22.6855C291.099 23.0152 291.428 23.18 291.924 23.5096C292.418 23.8394 293.243 24.1691 294.56 24.6635C296.374 25.3228 297.527 25.9822 298.187 26.6415C299.01 27.4658 299.341 28.2898 299.341 29.2789Z" fill="#F8F8F8"/>
</g>
</g>
<defs>
<clipPath id="clip0_8_192">
<rect width="300" height="45.7317" fill="white" transform="translate(0 0.268066)"/>
</clipPath>
</defs>
</svg>
