<svg width="200" height="34" viewBox="0 0 200 34" fill="none" xmlns="http://www.w3.org/2000/svg">
<g clip-path="url(#clip0_8_178)">
<mask id="mask0_8_178" style="mask-type:luminance" maskUnits="userSpaceOnUse" x="0" y="0" width="200" height="33">
<path d="M200 0.644043H0V32.2752H200V0.644043Z" fill="white"/>
</mask>
<g mask="url(#mask0_8_178)">
<path d="M0.851064 15.537C1.56028 11.8491 4.82269 9.2959 9.3617 9.2959C14.6099 9.2959 18.7234 11.5654 18.7234 18.6576V31.8491H14.1844L13.617 29.0122C12.0567 30.998 9.92908 32.2746 6.80851 32.2746C2.97872 32.2746 0 29.8633 0 25.4661C0 21.0689 3.97163 18.2321 9.50355 18.2321H13.1915V17.2391C13.1915 14.686 11.3475 13.9767 9.21986 13.9767C7.65957 13.9767 6.09929 14.5441 5.39007 16.5299L0.851064 15.537ZM8.08511 27.5938C10.6383 27.5938 13.1915 25.8916 13.1915 23.0547V22.6292H9.64539C7.23404 22.4874 5.8156 23.4803 5.8156 25.4661C5.8156 26.459 6.66667 27.5938 8.08511 27.5938Z" fill="#F8F8F8"/>
<path d="M107.801 15.537C108.51 11.8491 111.773 9.2959 116.312 9.2959C121.56 9.2959 125.674 11.5654 125.674 18.6576V31.8491H121.135L120.567 29.0122C119.007 30.998 116.879 32.2746 113.759 32.2746C109.929 32.2746 106.95 29.8633 106.95 25.4661C106.95 21.0689 110.922 18.2321 116.454 18.2321H120.142V17.2391C120.142 14.686 118.298 13.9767 116.17 13.9767C114.61 13.9767 113.049 14.5441 112.34 16.5299L107.801 15.537ZM115.035 27.5938C117.588 27.5938 120.142 25.8916 120.142 23.0547V22.6292H116.454C114.042 22.6292 112.624 23.4803 112.624 25.4661C112.766 26.459 113.617 27.5938 115.035 27.5938Z" fill="#F8F8F8"/>
<path d="M130.638 31.9909V9.57959H136.17V13.2675C137.731 10.5725 140.284 9.2959 142.695 9.2959C143.688 9.2959 144.539 9.43774 145.39 9.72143L144.397 14.8278C143.688 14.4023 142.979 14.1186 142.128 14.1186C138.865 14.1186 136.17 16.8136 136.17 23.9058V31.8491L130.638 31.9909Z" fill="#F8F8F8"/>
<path d="M157.163 9.29653C159.433 9.29653 161.56 10.4313 162.553 11.7079V0.644043H168.085V31.9916H162.553V29.7221C161.844 30.8568 159.858 32.4171 157.163 32.4171C150.496 32.4171 147.092 27.7362 147.092 20.9277C147.092 14.1192 150.496 9.29653 157.163 9.29653ZM158.014 27.5944C160.851 27.5944 163.121 25.1831 163.121 20.7859C163.121 16.3887 160.851 13.9774 158.014 13.9774C155.177 13.9774 152.908 16.3887 152.908 20.7859C152.908 25.1831 155.177 27.5944 158.014 27.5944Z" fill="#F8F8F8"/>
<path d="M187.943 12.843L184.681 15.8217C183.688 14.4033 182.128 13.8359 180.993 13.8359C179.858 13.8359 178.865 14.5451 178.865 15.6799C178.865 16.6728 179.716 17.382 180.993 17.8075C184.114 18.9423 189.078 19.9352 189.078 24.616C189.078 28.7295 185.957 31.9919 181.135 31.9919C176.454 31.9919 173.333 28.7295 172.34 26.0345L176.738 23.6231C177.589 25.7508 179.007 27.3111 181.277 27.3111C182.979 27.3111 184.114 26.46 184.114 24.8997C184.114 23.0558 181.277 22.6302 178.582 21.4955C176.17 20.5026 174.043 18.9423 174.043 15.538C174.043 12.1338 176.879 9.01318 181.135 9.01318C183.972 9.15503 186.667 10.7153 187.943 12.843Z" fill="#F8F8F8"/>
<path d="M73.617 9.58008L69.6454 25.0411L65.8156 9.58008H60.7092L57.0213 25.0411L53.9007 16.1049L53.4752 17.0978L51.7731 22.9134L54.61 31.9914H59.4326L63.2624 17.5233L67.0922 31.9914H72.0568L79.149 9.58008H73.617Z" fill="#F8F8F8"/>
<path d="M100.142 9.58008L96.1704 25.0411L92.3406 9.58008H87.2342L83.5463 25.0411L80.4257 16.1049L80.0002 17.0978L78.1562 22.9134L81.1349 31.9914H85.9576L89.7874 17.5233L93.6172 31.9914H98.4399L105.674 9.58008H100.142Z" fill="#F8F8F8"/>
<path d="M52.6239 9.58008L45.5317 31.8496H40.709L36.8793 17.5233L33.0495 31.9914H28.2268L21.1346 9.72192H26.6665L30.6381 25.0411L34.4679 9.72192H39.5743L43.4041 25.0411L47.3757 9.72192L52.6239 9.58008Z" fill="#F8F8F8"/>
<path d="M196.312 24.7573C198.44 24.7573 200 26.3176 200 28.4453C200 30.5729 198.44 32.1332 196.312 32.1332C194.184 32.1332 192.624 30.5729 192.624 28.4453C192.624 26.3176 194.184 24.7573 196.312 24.7573Z" fill="#F8F8F8"/>
</g>
</g>
<defs>
<clipPath id="clip0_8_178">
<rect width="200" height="32.6241" fill="white" transform="translate(0 0.644043)"/>
</clipPath>
</defs>
</svg>
